<svg xmlns="http://www.w3.org/2000/svg" viewBox="0 0 128 128">
  <path fill="#ffdb80" d="M62.2 56.3a2.018 2.018 0 0 1-.77-2.03c3.92-17.97-10.66-26.95-10.81-27.04a1.976 1.976 0 0 1-.96-1.92 8.3 8.3 0 0 0-.18-2.93 6.138 6.138 0 0 1-3.62 2.19 2.008 2.008 0 0 1-2.28-2.06 10.795 10.795 0 0 0-.92-4.03l-1.88 3.68a1.998 1.998 0 0 1-3.56 0l-1.88-3.69a11.073 11.073 0 0 0-.93 4.05 2.008 2.008 0 0 1-2.28 2.05 6.092 6.092 0 0 1-3.61-2.19 8.072 8.072 0 0 0-.18 2.93 1.994 1.994 0 0 1-.96 1.92c-.6.37-14.72 9.15-10.82 27.04a1.981 1.981 0 0 1-.77 2.03 20.572 20.572 0 0 0-7.04 12.59l4.2 3.35 12.02-7.85a1.999 1.999 0 0 1 2.37.13l13.15 10.84L51.63 66a1.999 1.999 0 0 1 2.39-.14l10.16 6.72 5-3.82A20.915 20.915 0 0 0 62.2 56.3zm-14.98-3.51l-3.9 3a7.132 7.132 0 0 1-4.32 1.4 7.039 7.039 0 0 1-4.31-1.4l-3.91-3a2 2 0 0 1 0-3.17l3.9-3.01a7.371 7.371 0 0 1 8.63 0l3.91 3.01a2 2 0 0 1 0 3.17z" />
  <path fill="#2d4356" d="M82 38.09a2.008 2.008 0 0 0-1.59 3.22l8.12 10.58-6.73 10.15a1.999 1.999 0 0 0 .14 2.39l9.37 11.13L80.46 88.7a1.983 1.983 0 0 0-.13 2.36l7.86 12.01-7.75 9.69A1.994 1.994 0 0 0 82 116c25.36 0 46-17.47 46-38.95s-20.64-38.96-46-38.96zm4.31 73.72l5.91-7.38a2.014 2.014 0 0 0 .11-2.34L84.48 90.1l10.98-13.28a1.994 1.994 0 0 0-.01-2.56L85.96 63l6.69-10.09a2 2 0 0 0-.08-2.32l-6.38-8.32c20.89 1.81 37.81 17 37.81 34.78 0 17.74-16.86 32.9-37.69 34.76z" />
  <path fill="#e1ebf4" d="M124 77.05c0 17.74-16.86 32.9-37.69 34.76l5.91-7.38a2.014 2.014 0 0 0 .11-2.34L84.48 90.1l10.98-13.28a1.994 1.994 0 0 0-.01-2.56L85.96 63l6.69-10.09a2 2 0 0 0-.08-2.32l-6.38-8.32c20.89 1.81 37.81 17 37.81 34.78z" />
  <g fill="#2d4356">
    <circle cx="30.5" cy="39.218" r="2" />
    <circle cx="47.5" cy="39.218" r="2" />
    <path d="M47.22 49.62l-3.91-3.01a7.371 7.371 0 0 0-8.63 0l-3.9 3.01a2 2 0 0 0 0 3.17l3.91 3a7.039 7.039 0 0 0 4.31 1.4 7.132 7.132 0 0 0 4.32-1.4l3.9-3a2 2 0 0 0 0-3.17zm-6.35 3.01a3.316 3.316 0 0 1-3.74 0l-1.85-1.43 1.85-1.42a3.316 3.316 0 0 1 3.74 0l1.85 1.42z" />
    <path d="M76.89 64.27a2.013 2.013 0 0 0-2.11.2l-2.1 1.61a25.988 25.988 0 0 0-7.1-12.13c3.1-16.99-8.3-26.82-11.87-29.43.09-5.36-3.15-7.75-3.3-7.85a1.994 1.994 0 0 0-3.12 1.19 5.878 5.878 0 0 1-.28.94 27.665 27.665 0 0 0-2.59-5.83 1.988 1.988 0 0 0-1.79-.97 2.009 2.009 0 0 0-1.71 1.09L39 16.85l-1.92-3.76A1.996 1.996 0 0 0 35.37 12a1.961 1.961 0 0 0-1.78.97 27.13 27.13 0 0 0-2.6 5.84 6.317 6.317 0 0 1-.29-.95 1.986 1.986 0 0 0-1.24-1.44 2.01 2.01 0 0 0-1.88.25c-.14.1-3.38 2.49-3.29 7.85-3.57 2.61-14.97 12.44-11.87 29.43A25.868 25.868 0 0 0 5.3 66.14L3.25 64.5A2 2 0 0 0 0 66.06C0 89.63 16.68 116 39 116s39-26.37 39-49.94a2 2 0 0 0-1.11-1.79zm-61.1-7.97a1.981 1.981 0 0 0 .77-2.03c-3.9-17.89 10.22-26.67 10.82-27.04a1.994 1.994 0 0 0 .96-1.92 8.072 8.072 0 0 1 .18-2.93 6.092 6.092 0 0 0 3.61 2.19 2.008 2.008 0 0 0 2.28-2.05 11.073 11.073 0 0 1 .93-4.05l1.88 3.69a1.998 1.998 0 0 0 3.56 0l1.88-3.68a10.795 10.795 0 0 1 .92 4.03 2.008 2.008 0 0 0 2.28 2.06 6.138 6.138 0 0 0 3.62-2.19 8.3 8.3 0 0 1 .18 2.93 1.976 1.976 0 0 0 .96 1.92c.15.09 14.73 9.07 10.81 27.04a2.018 2.018 0 0 0 .77 2.03 20.915 20.915 0 0 1 6.98 12.46l-5 3.82-10.16-6.72a1.999 1.999 0 0 0-2.39.14l-11.14 9.36-13.15-10.84a1.999 1.999 0 0 0-2.37-.13l-12.02 7.85-4.2-3.35a20.572 20.572 0 0 1 7.04-12.59zM39 112C20.29 112 5.99 90.83 4.19 70.37l7.39 5.89a1.983 1.983 0 0 0 2.34.11l12.01-7.83 13.3 10.96a1.994 1.994 0 0 0 2.56-.01l11.27-9.47 10.11 6.67a2 2 0 0 0 2.31-.07l8.34-6.38C72.07 90.75 57.75 112 39 112z" />
  </g>
  <path fill="#e1ebf4" d="M73.82 70.24C72.07 90.75 57.75 112 39 112 20.29 112 5.99 90.83 4.19 70.37l7.39 5.89a1.983 1.983 0 0 0 2.34.11l12.01-7.83 13.3 10.96a1.994 1.994 0 0 0 2.56-.01l11.27-9.47 10.11 6.67a2 2 0 0 0 2.31-.07z" />
  <path fill="#fc785e" d="M42.72 51.2l-1.85 1.43a3.316 3.316 0 0 1-3.74 0l-1.85-1.43 1.85-1.42a3.316 3.316 0 0 1 3.74 0z" />
  <path fill="#fff" d="M124 77.05c0 .33-.01.67-.02 1-.6-16.87-16.4-31.2-36.12-33.6l-1.67-2.18c20.89 1.81 37.81 17 37.81 34.78z" opacity=".5" />
  <path fill="#9fa5aa" d="M124 77.05c0 17.74-16.86 32.9-37.69 34.76l1.75-2.19c19.63-2.48 35.32-16.76 35.92-33.57.01.33.02.67.02 1z" opacity=".5" />
  <path fill="#fff" d="M73.82 70.24c-.06.72-.14 1.45-.24 2.18l-8.1 6.2a2 2 0 0 1-2.31.07l-10.11-6.67-11.27 9.47a1.994 1.994 0 0 1-2.56.01l-13.3-10.96-12.01 7.83a1.983 1.983 0 0 1-2.34-.11l-7.14-5.69c-.11-.73-.19-1.47-.25-2.2l7.39 5.89a1.983 1.983 0 0 0 2.34.11l12.01-7.83 13.3 10.96a1.994 1.994 0 0 0 2.56-.01l11.27-9.47 10.11 6.67a2 2 0 0 0 2.31-.07z" opacity=".5" />
  <path fill="#f9edd2" d="M28.34 27.31a1.994 1.994 0 0 1-.96 1.92c-.52.32-10.99 6.83-11.48 19.97-.56-14.48 10.94-21.64 11.48-21.97a1.943 1.943 0 0 0 .91-1.26 8.898 8.898 0 0 0 .05 1.34zm33.74 21.97c-.51-13.31-11.33-19.97-11.46-20.05a1.976 1.976 0 0 1-.96-1.92 9.654 9.654 0 0 0 .04-1.4 1.908 1.908 0 0 0 .92 1.32c.14.08 12.03 7.41 11.46 22.05zM49.66 25.31v.05a6.589 6.589 0 0 0-.18-.98 6.138 6.138 0 0 1-3.62 2.19 2.008 2.008 0 0 1-2.28-2.06 10.795 10.795 0 0 0-.92-4.03l-1.88 3.68a1.998 1.998 0 0 1-3.56 0l-1.88-3.69a11.073 11.073 0 0 0-.93 4.05 2.008 2.008 0 0 1-2.28 2.05 6.092 6.092 0 0 1-3.61-2.19 7.309 7.309 0 0 0-.18.93 8.072 8.072 0 0 1 .18-2.93 6.092 6.092 0 0 0 3.61 2.19 2.008 2.008 0 0 0 2.28-2.05 11.073 11.073 0 0 1 .93-4.05l1.88 3.69a1.998 1.998 0 0 0 3.56 0l1.88-3.68a10.795 10.795 0 0 1 .92 4.03 2.008 2.008 0 0 0 2.28 2.06 6.138 6.138 0 0 0 3.62-2.19 8.3 8.3 0 0 1 .18 2.93z" opacity=".5" />
  <path fill="#9fa5aa" d="M73.82 70.24C72.07 90.75 57.75 112 39 112 20.29 112 5.99 90.83 4.19 70.37l.25.2C7.02 90.32 20.96 110 39 110c18.09 0 32.05-19.78 34.58-39.58z" opacity=".5" />
</svg>