<svg viewBox="0 0 512 512" xmlns="http://www.w3.org/2000/svg">
  <path d="m456 444.197c-.107 33.206-27.687 59.803-60.894 59.803h-279.106c-33.23 0-60.106-26.989-60-60.197.107-33.206 27.687-59.803 60.894-59.803h17.196c6.46 9.65 17.47 16 29.95 16h183.92c12.519 0 23.537-6.405 29.95-16h18.09c33.23 0 60.106 26.989 60 60.197z" fill="#ffe4cc" />
  <path d="m395.106 504h-11.106v-60l-112 28-.87-2.62c-4.26-12.77-16.21-21.38-29.66-21.38-11.853 0-17.61 5.423-33.47 16l-80-20v60h-12c-33.138 0-60-26.859-60-60 0-33.124 26.846-60 60-60h18.09c6.46 9.65 17.47 16 29.95 16h183.92c12.519 0 23.537-6.405 29.95-16 18.741 0 40.418-2.512 60.52 17.57 37.682 37.717 10.856 102.43-43.324 102.43z" fill="#fecb82" />
  <path d="m377.91 384c-6.41 9.591-17.426 16-29.95 16h-183.92c-12.21 0-23.342-6.128-29.95-16-2.47.009-21.52.078-21.85.12-31.546 1.947-56.342 28.194-56.24 60.076.107 33.207 27.687 59.804 60.894 59.804h11.106v-16h-11.224c-39.191 0-59.841-47.19-31.886-75.11 15.07-15.089 34.459-12.89 31.11-12.89 1.264 0 2.456.591 3.214 1.603 6.553 8.744 17.011 14.397 28.786 14.397h196c18.419 0 33.719-13.856 35.76-31.88-3.123-.2-5.662-.12-1.85-.12z" fill="#edac5f" />
  <path d="m216 488c-12.813 0-18.251-16.312-8-24l-32.572 13.029c-7.234 2.893-7.752 10.971-7.428 10.971-16.912 0-31.775-11.211-36.421-27.472l-3.579-12.528v56h256v-16zm168-124.04c0 19.8-16.087 36.04-36.04 36.04h-183.92c-22.997 0-40.197-21.327-35.18-43.86l10.31-46.43c12.227-54.962 60.988-93.71 116.83-93.71 56.277 0 104.694 39.138 116.83 93.71 11.082 49.909 11.17 48.906 11.17 54.25z" fill="#f9cfac" />
  <path d="m383.14 356.14-10.31-46.43a119.382 119.382 0 0 0 -29.34-55.69c-11.437-10.157-25.176-18.266-40.18-23.46-.55.76-1.35 1.5-2.36 2.2-.825-.351-3.275-1.305-5.86-2.2-9.096 12.553-69.076 12.352-78.17.01-2.11.72-4.2 1.51-6.26 2.35-27.312 16.319-48.087 43.512-55.49 76.79-11.204 50.457-10.646 47.548-10.94 50.26 1.99 18.02 17.27 32.03 35.81 32.03 198.697 0 185.071.48 191.92-1.18 9.166-7.724 14.141-21.381 11.18-34.68z" fill="#ffe4cc" />
  <path d="m275.57 400h-27.57c0-4.42 3.58-8 8-8 6.62 0 12-5.38 12-12 0-6.48-5.175-11.834-11.695-11.996-4.161-.104-7.842-3.024-8.262-7.165a8 8 0 0 1 7.957-8.839c24.976 0 37.556 30.429 19.57 48z" fill="#f9cfac" />
  <path d="m313.78 296 14.22 64h-6.06c-21.092 0-42.126-8.186-57.94-24h-16a81.968 81.968 0 0 1 -57.94 24h-14.06l7.73-34.78c14.88-2.626 19.993-3.429 25.03-4.64 47.31-11.23 83.15-48.99 92.71-95.61 30.579 12.542 55.809 37.879 67.44 71.03z" fill="#fecb82" />
  <path d="m368.91 296h-3.13c-12.811-29.544-36.9-52.292-66.05-63.73.66-2.41 1.24-4.84 1.74-7.3 30.579 12.542 55.809 37.879 67.44 71.03z" fill="#edac5f" />
  <path d="m344 360h-16c-12.664-57.023-9.477-42.684-14.22-64h14.22zm-16-208.26c-3.914 7.789-7.218 11.711-16.5 24.26h-1.82c-6.89 23.13-28.3 40-53.68 40-25.409 0-46.815-16.931-53.68-40h-1.82l-9.32-12.6c-32.88-44.47-9.2-105.12 40.82-119.99v-10.86c0-21.631 25.721-32.735 40.97-17.52 8.318 8.337 7.03 16.894 7.03 28.38 45.77 13.61 69.48 65.54 48 108.33z" fill="#f9cfac" />
  <path d="m312 120v24c0 30.874-25.256 56.919-56.13 56.849-23.251-.053-39.87-18.858-39.87-40.027 0-33.228 26.235-56.822 56-56.822h23.977c8.834 0 16.01 7.153 16.023 16z" fill="#ffe4cc" />
  <path d="m256.554 8.005c-17.902-.306-32.554 14.728-32.554 32.632v15.363h64v-16c0-17.46-14.056-31.699-31.446-31.995z" fill="#797a7a" />
  <path d="m320.82 163.4-9.32 12.6h-1.82c3.127-10.499 2.32-14.718 2.32-56 0-5.56-.81-10.93-2.32-16h-4.74c-5.447 0-10.488-3.075-12.94-8-2.45-4.9-7.46-8-12.94-8h-46.12c-5.447 0-10.488 3.075-12.94 8-2.45 4.9-7.46 8-12.94 8h-4.74c-3.127 10.499-2.32 14.718-2.32 56 0 5.56.81 10.93 2.32 16h-1.82l-9.32-12.6c-32.88-44.47-9.2-105.12 40.82-119.99 15.066-4.502 32.572-4.61 48 0 50.02 14.87 73.7 75.52 40.82 119.99z" fill="#6d6d6d" />
  <path d="m396 504h-12v-16h20c27.5 0 49.85-21.283 51.86-48.08 2.332 34.969-25.365 64.08-59.86 64.08zm-67-144c-7.24 0-10.45.103-15.77-.47a81.958 81.958 0 0 1 -44.11-18.82c-4.854-4.101-10.97-5.44-16.62-4.46-10.305 1.635-11.268 9.283-31.08 17.51-17.724 7.346-31.063 6.24-45.42 6.24l7.73-34.78 16.65-2.93-1.8 4.84c-1.35 3.63 1.23 7.53 5.11 7.72a81.61 81.61 0 0 0 17.73-5.09c19.618-8.146 20.844-15.886 31.08-17.51 5.61-.973 11.715.317 16.62 4.46 14.633 12.322 32.936 19.29 53.88 19.29z" fill="#edac5f" />
  <path d="m207.81 289.74-7.22 32.51-16.86 2.97 8.46-38.96c.96-4.31 5.23-7.03 9.54-6.07a8 8 0 0 1 6.08 9.55z" fill="#f9cfac" />
  <path d="m152.881 274.573a8 8 0 0 0 11.101-2.184c.474-.707.966-1.395 1.467-2.083a8 8 0 1 0 -12.939-9.411 84.702 84.702 0 0 0 -1.813 2.577 8.001 8.001 0 0 0 2.184 11.101z" />
  <path d="m504 496h-64.248c48.223-40.639 19.812-120-43.752-120h-5.672c3.94-13.929 1.086-19.501-9.689-68.028-9.922-44.593-43.331-81.556-88.975-94.857 10.89-7.336 19.401-17.934 24.147-30.376 1.661-1.062 1.228-.772 11.442-14.588 35.506-48.029 11.152-111.844-39.253-130.544v-5.607c0-17.645-14.355-32-32-32s-32 14.355-32 32v5.607c-50.419 18.705-74.747 82.531-39.253 130.544 10.253 13.869 9.78 13.526 11.442 14.588 4.744 12.435 13.247 23.028 24.127 30.363a127.71 127.71 0 0 0 -46.647 25.005 8 8 0 1 0 10.322 12.225c29.508-24.916 70.336-33.184 108.054-20.313-11.586 43.55-46.964 76.252-91.856 84.172l-6.052 1.068 5.672-25.524a8 8 0 0 0 -15.619-3.471l-14.608 65.735h-9.582a8 8 0 0 0 0 16h30.059c24.024 0 46.61-9.355 63.598-26.343a7.97 7.97 0 0 0 2.343-5.654 7.976 7.976 0 0 0 2.343 5.654c16.988 16.989 39.574 26.344 63.598 26.344h30.059a8 8 0 0 0 0-16h-9.583l-10.667-48h31.315a110.431 110.431 0 0 1 1.955 7.444c11.302 50.898 10.98 48.346 10.98 52.516 0 15.487-12.552 28.04-28.04 28.04h-66.667a27.824 27.824 0 0 0 2.707-12c0-27.117-36-36.192-36-20a8 8 0 0 0 8 8c6.627 0 12 5.373 12 12 0 6.617-5.383 12-12 12h-91.96c-17.891 0-31.265-16.617-27.371-34.126 10.584-47.663 11.059-51.509 14.713-61.27a8.001 8.001 0 0 0 -14.985-5.609c-4.131 11.038-4.413 14.171-15.347 63.406a43.896 43.896 0 0 0 .636 21.598h-5.686c-62.959 0-92.265 79.067-43.805 120h-64.195a8 8 0 0 0 0 16h496a8 8 0 0 0 0-15.999zm-264-464c0-8.823 7.178-16 16-16s16 7.177 16 16c0 3.279 1.066-.52-18.907.041-14.55.407-13.093 2.719-13.093-.041zm-48.944 55.809c25.882-53.16 103.955-53.267 129.889 0 9.832 20.194 9.34 42.685-.944 61.944-.001-32.179 1.79-53.753-10.321-53.753-4.176 0-8.372.745-10.525-3.578-3.831-7.662-11.531-12.422-20.095-12.422-49.739 0-50.692-1.088-57.948 3.362-9.339 5.795-7.229 12.638-14.052 12.638h-4.74c-12.178 0-10.32 21.74-10.32 53.752-10.285-19.258-10.776-41.75-.944-61.943zm16.944 72.191c0-43.899-.224-42.739.672-48.057 7.91-.556 14.894-5.188 18.489-12.377a6.43 6.43 0 0 1 2.352-2.587c2.236-1.372-.36-.979 49.547-.979 6.802 0 4.701 6.836 14.088 12.66a22.581 22.581 0 0 0 10.179 3.282c.944 5.592.673 4.943.673 48.058 0 26.467-21.533 48-48 48s-48-21.533-48-48zm120.195 128-.386-1.735a7.998 7.998 0 0 0 -9.545-6.074 8 8 0 0 0 -6.074 9.545l13.837 62.264h-4.086c-19.75 0-38.318-7.691-52.284-21.657-5.053-5.053-13.654-1.408-13.657 5.654-.002-7.061-8.601-10.708-13.657-5.654-13.966 13.966-32.534 21.657-52.284 21.657h-4.086l4.407-19.83 12.591-2.222c50.958-8.991 90.462-46.372 103.948-93.628 22.4 11.455 39.635 29.722 50.029 51.68zm-146.138 177.761-8.032 3.213c-10.907 4.363-16.325 16.147-13.11 27.026h-24.915v-41.754zm.254 30.239c-6.891 0-8.788-9.593-2.344-12.171 33.157-13.263 31.479-12.515 32.47-13.173 16.95-11.3 20.164-14.656 29.028-14.656a23.234 23.234 0 0 1 22.07 15.907l.874 2.623a8 8 0 0 0 9.53 5.232l102.061-25.516v41.754zm209.689 0v-45.754l9.94-2.485a8 8 0 0 0 -3.881-15.522l-121.081 30.27a39.21 39.21 0 0 0 -35.512-22.509c-14.295 0-21.768 6.587-34.959 15.38l-92.567-23.142a8 8 0 1 0 -3.881 15.522l9.94 2.485v45.755h-4c-28.806 0-52-23.324-52-52 0-28.673 23.327-52 52-52h14.106c8.084 9.767 20.294 16 33.934 16h183.92c13.287 0 25.538-5.851 33.952-16 16.337 0 33.851-1.767 50.858 15.224 32.477 32.507 9.664 88.776-36.769 88.776z" />
</svg>