<svg enable-background="new 0 0 512 512" viewBox="0 0 512 512" xmlns="http://www.w3.org/2000/svg">
  <g clip-rule="evenodd" fill-rule="evenodd">
    <path d="m462.564 297.743v-56.473l11.717-9.527 11.719 9.578v56.474l-11.719-9.578z" fill="#d8ecfe" />
    <path d="m125.514 93.903h122.255c4.706 0 8.556 3.851 8.556 8.556v33.07h-24.743v-26.846h-89.882v26.846h-24.742v-33.07c-.001-4.706 3.849-8.556 8.556-8.556zm-68.695 49.475h259.643c10.824 0 19.681 8.856 19.681 19.681v94.424h-.001c-29.873 0-54.089 24.216-54.089 54.089 0 18.197 8.986 34.295 22.763 44.099h-247.997c-10.824 0-19.681-8.856-19.681-19.681v-172.931c.001-10.825 8.857-19.681 19.681-19.681z" fill="#b47316" />
    <path d="m47.147 135.528h278.988c11.631 0 21.147 9.517 21.147 21.147v45.481l-160.641 46.575-160.641-46.574v-45.481c0-11.631 9.516-21.148 21.147-21.148z" fill="#ffb229" />
    <path d="m167.705 229.796h37.871v37.87h-37.871z" fill="#d8ecfe" />
    <path d="m318.767 205.047h34.749v16.893a90.802 90.802 0 0 1 33.718 13.968l11.946-11.946 24.571 24.571-11.946 11.946a90.799 90.799 0 0 1 13.968 33.718h16.893v34.749h-16.893a90.802 90.802 0 0 1 -13.968 33.718l11.946 11.946-24.571 24.571-11.946-11.946a90.792 90.792 0 0 1 -33.718 13.968v16.893h-34.749v-16.893a90.785 90.785 0 0 1 -33.718-13.968l-11.946 11.946-24.571-24.571 11.946-11.946a90.799 90.799 0 0 1 -13.968-33.718h-16.893v-34.749h16.893a90.785 90.785 0 0 1 13.968-33.718l-11.946-11.946 24.571-24.571 11.946 11.946a90.792 90.792 0 0 1 33.718-13.968zm17.375 52.436c-29.873 0-54.089 24.216-54.089 54.089s24.216 54.089 54.089 54.089 54.089-24.216 54.089-54.089c-.001-29.873-24.217-54.089-54.089-54.089z" fill="#ffb229" />
    <path d="m238.114 243.376 98.028 20.03 98.029-20.03v-66.416l-98.029 28.428-98.028-28.274z" fill="#565656" />
    <path d="m190.002 165.557 146.14 42.151 146.14-42.381-146.14-42.38z" fill="#393939" />
    <path d="m175.705 259.667h21.871v-21.87h-21.871zm300.134-102.188a8.003 8.003 0 0 1 6.443 7.848v62.631l8.78 7.176a7.978 7.978 0 0 1 2.932 6.188h.006v56.474c0 6.664-7.836 10.623-13.277 6.012l-6.47-5.288-6.657 5.412c-5.271 4.285-13.01.328-13.006-6.187h-.026v-56.475a7.99 7.99 0 0 1 3.462-6.588l8.257-6.713v-52.022l-24.112 6.993v60.437h-.025a7.976 7.976 0 0 1 -6.381 7.813l-4.896 1c-1.02 1.983-6.915 7.456-8.907 9.447a99.917 99.917 0 0 1 10.172 24.562h10.534a8 8 0 0 1 8 8v34.749a8 8 0 0 1 -8 8h-10.534a99.933 99.933 0 0 1 -10.172 24.562l7.447 7.447a8 8 0 0 1 0 11.313l-24.571 24.571a8 8 0 0 1 -11.313 0l-7.447-7.447a99.917 99.917 0 0 1 -24.562 10.172v10.534a8 8 0 0 1 -8 8h-34.749a8 8 0 0 1 -8-8v-10.534a99.933 99.933 0 0 1 -24.562-10.172l-7.447 7.447a8 8 0 0 1 -11.313 0l-24.571-24.571a8 8 0 0 1 0-11.313l5.284-5.284h-191.339c-15.24 0-27.681-12.44-27.681-27.681v-124.626l-5.357-1.553a7.974 7.974 0 0 1 -5.754-7.656h-.027v-45.481c0-16.047 13.099-29.147 29.147-29.147h61.81v-25.07c0-9.122 7.434-16.556 16.556-16.556h122.255c9.122 0 16.556 7.434 16.556 16.556v25.07h35.583l33.929-9.893a7.936 7.936 0 0 1 4.524-.025zm-5.275 87.564v36.094a8.011 8.011 0 0 1 7.436.001v-36.031l-3.748-3.063zm-224.45-8.171 90.028 18.395 90.029-18.395v-49.293l-87.217 25.3c-2.905.841-4.057.594-6.96-.401l-85.879-24.77v49.164zm88.434 34.346-14.368-2.936c-8.603 3.169-16.002 8.836-21.32 16.123-13.336 18.274-11.354 43.712 4.691 59.757 17.998 17.998 47.183 17.998 65.181 0 16.045-16.045 18.028-41.484 4.691-59.757-5.318-7.287-12.718-12.954-21.321-16.123l-14.197 2.901a7.935 7.935 0 0 1 -3.357.035zm-37.67-7.697-28.944-5.914a7.98 7.98 0 0 1 -.832 7.341 82.991 82.991 0 0 0 -7.949 14.721 82.764 82.764 0 0 0 -4.713 15.587 8 8 0 0 1 -7.93 6.941h-8.893v18.749h8.893v.013a7.988 7.988 0 0 1 7.844 6.486c1.911 9.957 6.56 21.978 12.547 30.449a8 8 0 0 1 -.766 10.425l-6.29 6.29 13.259 13.259 6.29-6.29.005.005a7.994 7.994 0 0 1 10.12-.974 82.991 82.991 0 0 0 14.721 7.949 82.742 82.742 0 0 0 15.587 4.713 8.002 8.002 0 0 1 6.941 7.93v8.893h18.749v-8.893h.013a7.988 7.988 0 0 1 6.487-7.844c10.296-1.976 21.947-6.538 30.449-12.547a8.001 8.001 0 0 1 10.425.767l6.29 6.29 13.259-13.259-6.29-6.29.005-.005a7.994 7.994 0 0 1 -.974-10.12 82.927 82.927 0 0 0 7.949-14.721 82.818 82.818 0 0 0 4.714-15.587 8.002 8.002 0 0 1 7.93-6.941h8.893v-18.749h-8.893v-.013a7.988 7.988 0 0 1 -7.844-6.487c-1.976-10.295-6.538-21.948-12.547-30.449a8.012 8.012 0 0 1 -1.046-7.639l-28.933 5.912c28.379 23.214 30.712 65.881 4.64 91.954-24.248 24.248-63.558 24.247-87.806 0-26.073-26.072-23.737-68.742 4.64-91.952zm-55.463-11.333c1.018 1.982 6.917 7.457 8.907 9.448a99.917 99.917 0 0 0 -10.172 24.562h-10.534a8 8 0 0 0 -8 8v34.749a8 8 0 0 0 8 8h10.534a99.066 99.066 0 0 0 3.502 10.725h-186.833c-6.408 0-11.681-5.273-11.681-11.681v-119.986l114.567 33.216v18.445a8 8 0 0 0 8 8h37.871a8 8 0 0 0 8-8v-18.445l16.604-4.814a8.003 8.003 0 0 0 6.977 6.911zm-11.301-24.36v-44.735l-33.946-9.791c-8.192-2.152-7.995-13.202-.384-15.414l49.249-14.359h-197.886c-7.215 0-13.147 5.933-13.147 13.147v39.501l125.706 36.446v-2.827a8 8 0 0 1 8-8h37.871a8 8 0 0 1 8 8v2.827zm201.17-58.331 14.379-4.17-109.515-31.759-109.542 31.939 109.537 31.54zm-207.702-41.968v-10.846h-73.882v10.846zm24.186-25.627h-11.939a7.994 7.994 0 0 1 3.753 6.78v18.846h8.743v-25.07zm-110.315 0h-11.939l-.556.556v25.07h8.743v-18.846a7.993 7.993 0 0 1 3.752-6.78z" />
  </g>
</svg>